<svg xmlns="http://www.w3.org/2000/svg" xmlns:xlink="http://www.w3.org/1999/xlink" contentStyleType="text/css" height="681px" preserveAspectRatio="none" style="width:755px;height:681px;background:#FFFFFF;" version="1.1" viewBox="0 0 755 681" width="755px" zoomAndPan="magnify"><defs/><g><!--cluster Row--><g id="cluster_Row"><path d="M19.5,7 L317.5,7 A12.5,12.5 0 0 1 330,19.5 L330,28.2969 L7,28.2969 L7,19.5 A12.5,12.5 0 0 1 19.5,7 " fill="#F1F1F1" style="stroke:#F1F1F1;stroke-width:1.0;"/><rect fill="none" height="575" rx="12.5" ry="12.5" style="stroke:#181818;stroke-width:0.5;" width="323" x="7" y="7"/><line style="stroke:#181818;stroke-width:0.5;" x1="7" x2="330" y1="28.2969" y2="28.2969"/><text fill="#000000" font-family="sans-serif" font-size="14" lengthAdjust="spacing" textLength="29.7432" x="154" y="23.9951">Row</text></g><rect fill="#F1F1F1" height="40" rx="12.5" ry="12.5" style="stroke:#181818;stroke-width:0.5;" width="50" x="213" y="50"/><text fill="#000000" font-family="sans-serif" font-size="14" lengthAdjust="spacing" textLength="33.4619" x="221.269" y="74.8467">Date</text><rect fill="#F1F1F1" height="40" rx="12.5" ry="12.5" style="stroke:#181818;stroke-width:0.5;" width="50" x="118" y="167"/><text fill="#000000" font-family="sans-serif" font-size="14" lengthAdjust="spacing" textLength="14.9092" x="135.5454" y="191.8467">ID</text><rect fill="#F1F1F1" height="40" rx="12.5" ry="12.5" style="stroke:#181818;stroke-width:0.5;" width="50" x="118" y="284"/><text fill="#000000" font-family="sans-serif" font-size="14" lengthAdjust="spacing" textLength="37.6592" x="124.1704" y="308.8467">Debit</text><rect fill="#F1F1F1" height="40" rx="12.5" ry="12.5" style="stroke:#181818;stroke-width:0.5;" width="52.4102" x="30.79" y="284"/><text fill="#000000" font-family="sans-serif" font-size="14" lengthAdjust="spacing" textLength="42.4102" x="35.79" y="308.8467">Credit</text><rect fill="#F1F1F1" height="40" rx="12.5" ry="12.5" style="stroke:#181818;stroke-width:0.5;" width="65.8359" x="93.08" y="401"/><text fill="#000000" font-family="sans-serif" font-size="14" lengthAdjust="spacing" textLength="55.8359" x="98.08" y="425.8467">Balance</text><rect fill="#F1F1F1" height="40" rx="12.5" ry="12.5" style="stroke:#181818;stroke-width:0.5;" width="78.5918" x="97.7" y="518"/><text fill="#000000" font-family="sans-serif" font-size="14" lengthAdjust="spacing" textLength="68.5918" x="102.7" y="542.8467">Comment</text><ellipse cx="389" cy="304" fill="#222222" rx="10" ry="10" style="stroke:#222222;stroke-width:1.0;"/><rect fill="#F1F1F1" height="40" rx="12.5" ry="12.5" style="stroke:#181818;stroke-width:0.5;" width="50" x="470" y="401"/><text fill="#000000" font-family="sans-serif" font-size="14" lengthAdjust="spacing" textLength="25.5186" x="482.2407" y="425.8467">Idle</text><ellipse cx="495" cy="664" fill="none" rx="11" ry="11" style="stroke:#222222;stroke-width:1.0;"/><ellipse cx="495" cy="664" fill="#222222" rx="6" ry="6" style="stroke:#222222;stroke-width:1.0;"/><rect fill="#F1F1F1" height="40" rx="12.5" ry="12.5" style="stroke:#181818;stroke-width:0.5;" width="148.1475" x="547.93" y="167"/><text fill="#000000" font-family="sans-serif" font-size="14" lengthAdjust="spacing" textLength="138.1475" x="552.93" y="191.8467">onErrorSkip(choice)</text><g id="elem_skipChoice"><polygon fill="#F1F1F1" points="622,292,634,304,622,316,610,304,622,292" style="stroke:#181818;stroke-width:0.5;"/></g><!--link *start* to Idle--><g id="link_*start*_Idle"><path d="M385.7,313.52 C381.1,326.94 374.54,353.28 386,371 C404.37,399.4 437.6494,410.3594 463.6794,415.3994 " fill="none" id="*start*-to-Idle" style="stroke:#181818;stroke-width:1.0;"/><polygon fill="#181818" points="469.57,416.54,461.4945,410.9021,464.6612,415.5895,459.9737,418.7562,469.57,416.54" style="stroke:#181818;stroke-width:1.0;"/><text fill="#000000" font-family="sans-serif" font-size="13" lengthAdjust="spacing" textLength="81.9863" x="387" y="367.0669">Page header</text></g><!--link Idle to Date--><g id="link_Idle_Date"><path d="M490.52,400.78 C486.9,387.2 481.08,368.85 473,354 C412.27,242.36 308.2961,137.4166 263.0761,94.3766 " fill="none" id="Idle-to-Date" style="stroke:#181818;stroke-width:1.0;"/><polygon fill="#181818" points="258.73,90.24,262.4914,99.3423,262.3518,93.6872,268.0069,93.5475,258.73,90.24" style="stroke:#181818;stroke-width:1.0;"/><text fill="#000000" font-family="sans-serif" font-size="13" lengthAdjust="spacing" textLength="56.3672" x="407" y="250.0669">First row</text></g><!--link Date to ID--><g id="link_Date_ID"><path d="M222.1,90.25 C204.56,111.48 180.332,140.8148 162.772,162.0648 " fill="none" id="Date-to-ID" style="stroke:#181818;stroke-width:1.0;"/><polygon fill="#181818" points="158.95,166.69,167.7665,162.3003,162.135,162.8357,161.5996,157.2042,158.95,166.69" style="stroke:#181818;stroke-width:1.0;"/></g><!--link ID to Debit--><g id="link_ID_Debit"><path d="M143,207.25 C143,228.48 143,256.44 143,277.69 " fill="none" id="ID-to-Debit" style="stroke:#181818;stroke-width:1.0;"/><polygon fill="#181818" points="143,283.69,147,274.69,143,278.69,139,274.69,143,283.69" style="stroke:#181818;stroke-width:1.0;"/></g><!--link ID to Credit--><g id="link_ID_Credit"><path d="M128.61,207.25 C112.73,228.48 90.9346,257.6359 75.0346,278.8859 " fill="none" id="ID-to-Credit" style="stroke:#181818;stroke-width:1.0;"/><polygon fill="#181818" points="71.44,283.69,80.0346,278.8803,74.4355,279.6866,73.6291,274.0875,71.44,283.69" style="stroke:#181818;stroke-width:1.0;"/></g><!--link Debit to Balance--><g id="link_Debit_Balance"><path d="M140.15,324.25 C137.02,345.48 132.8798,373.5049 129.7298,394.7549 " fill="none" id="Debit-to-Balance" style="stroke:#181818;stroke-width:1.0;"/><polygon fill="#181818" points="128.85,400.69,134.1265,392.3738,129.5832,395.744,126.2129,391.2007,128.85,400.69" style="stroke:#181818;stroke-width:1.0;"/></g><!--link Credit to Balance--><g id="link_Credit_Balance"><path d="M68.55,324.25 C81.29,345.48 98.573,374.295 111.323,395.545 " fill="none" id="Credit-to-Balance" style="stroke:#181818;stroke-width:1.0;"/><polygon fill="#181818" points="114.41,400.69,113.2095,390.9146,111.8375,396.4025,106.3496,395.0305,114.41,400.69" style="stroke:#181818;stroke-width:1.0;"/></g><!--link Debit to Comment--><g id="link_Debit_Comment"><path d="M153.06,324.25 C165.53,350.49 184.2,399.03 176,441 C170.55,468.9 159.6872,493.5805 150.0872,512.4805 " fill="none" id="Debit-to-Comment" style="stroke:#181818;stroke-width:1.0;"/><polygon fill="#181818" points="147.37,517.83,155.0121,511.6173,149.6343,513.3721,147.8795,507.9943,147.37,517.83" style="stroke:#181818;stroke-width:1.0;"/></g><!--link Credit to Comment--><g id="link_Credit_Comment"><path d="M57.14,324.09 C57.89,350.98 61.35,401.17 76,441 C86.63,469.91 103.2958,494.4888 117.5558,512.9788 " fill="none" id="Credit-to-Comment" style="stroke:#181818;stroke-width:1.0;"/><polygon fill="#181818" points="121.22,517.73,118.8911,508.1605,118.1665,513.7707,112.5562,513.0461,121.22,517.73" style="stroke:#181818;stroke-width:1.0;"/></g><!--link Balance to Comment--><g id="link_Balance_Comment"><path d="M127.84,441.25 C129.87,462.48 132.5494,490.4672 134.5794,511.7172 " fill="none" id="Balance-to-Comment" style="stroke:#181818;stroke-width:1.0;"/><polygon fill="#181818" points="135.15,517.69,138.276,508.3504,134.6745,512.7127,130.3123,509.1112,135.15,517.69" style="stroke:#181818;stroke-width:1.0;"/></g><!--link Comment to Comment--><g id="link_Comment_Comment"><path d="M176.75,527.25 C195.19,526.08 211.3,529.66 211.3,538 C211.3,546.34 201.178,550.2999 182.738,549.1299 " fill="none" id="Comment-to-Comment" style="stroke:#181818;stroke-width:1.0;"/><polygon fill="#181818" points="176.75,548.75,185.4787,553.3119,181.74,549.0666,185.9852,545.3279,176.75,548.75" style="stroke:#181818;stroke-width:1.0;"/><text fill="#000000" font-family="sans-serif" font-size="13" lengthAdjust="spacing" textLength="92.1553" x="217.3" y="542.5669">One more line</text></g><!--link Comment to Date--><g id="link_Comment_Date"><path d="M170.35,517.61 C199.77,497.73 238,463.85 238,422 C238,186 238,186 238,186 C238,152.26 238,118.95 238,96.13 " fill="none" id="Comment-to-Date" style="stroke:#181818;stroke-width:1.0;"/><polygon fill="#181818" points="238,90.13,234,99.13,238,95.13,242,99.13,238,90.13" style="stroke:#181818;stroke-width:1.0;"/><text fill="#000000" font-family="sans-serif" font-size="13" lengthAdjust="spacing" textLength="58.5762" x="239" y="308.5669">Next row</text></g><!--link Comment to *end*--><g id="link_Comment_*end*"><path d="M176.68,552.74 C257.87,580.87 433.4905,641.696 478.8705,657.416 " fill="none" id="Comment-to-*end*" style="stroke:#181818;stroke-width:1.0;"/><polygon fill="#181818" points="484.54,659.38,477.3451,652.6544,479.8154,657.7434,474.7265,660.2137,484.54,659.38" style="stroke:#181818;stroke-width:1.0;"/><text fill="#000000" font-family="sans-serif" font-size="13" lengthAdjust="spacing" textLength="75.1118" x="380" y="619.0669">Page footer</text></g><!--link onErrorChoice to skipChoice--><g id="link_onErrorChoice_skipChoice"><path d="M622,207.25 C622,231.29 622,265.66 622,285.41 " fill="none" id="onErrorChoice-to-skipChoice" style="stroke:#181818;stroke-width:1.0;"/><polygon fill="#181818" points="622,291.41,626,282.41,622,286.41,618,282.41,622,291.41" style="stroke:#181818;stroke-width:1.0;"/></g><!--link Row to onErrorChoice--><g id="link_Row_onErrorChoice"><path d="M330.0533,71.9915 C330.1794,72.0079 330.3069,72.0246 330.4357,72.0414 C330.6933,72.0752 330.9563,72.1098 331.2247,72.1452 C332.2982,72.2871 333.4574,72.4427 334.6979,72.6123 C337.1789,72.9517 339.9853,73.3473 343.0827,73.8019 C355.4722,75.62 372.5181,78.38 392.0238,82.245 C431.035,89.975 479.885,102.125 521,120 C549.05,132.19 573.1462,148.3551 592.8162,163.0751 " fill="none" id="Row-to-onErrorChoice" style="stroke:#FF0000;stroke-width:1.0;stroke-dasharray:7.0,7.0;"/><polygon fill="#FF0000" points="597.62,166.67,592.8109,158.0751,593.6168,163.6742,588.0177,164.4802,597.62,166.67" style="stroke:#FF0000;stroke-width:1.0;"/><text fill="#000000" font-family="sans-serif" font-size="13" lengthAdjust="spacing" textLength="38.9175" x="554" y="133.0669">Failed</text></g><!--link skipChoice to Idle--><g id="link_skipChoice_Idle"><path d="M614.78,309 C601.25,316.68 571.5,334.49 550,354 C534.42,368.13 522.9289,381.9267 512.5089,395.7667 " fill="none" id="skipChoice-to-Idle" style="stroke:#181818;stroke-width:1.0;"/><polygon fill="#181818" points="508.9,400.56,517.5089,395.7759,511.9074,396.5655,511.1177,390.9641,508.9,400.56" style="stroke:#181818;stroke-width:1.0;"/><text fill="#000000" font-family="sans-serif" font-size="13" lengthAdjust="spacing" textLength="99.0234" x="551" y="367.0669">[choice="row"]</text></g><!--link skipChoice to *end*--><g id="link_skipChoice_*end*"><path d="M627.57,310.72 C635.48,319.29 649.61,336.34 655,354 C657.21,361.23 656.2,363.54 655,371 C638.12,475.9 641.61,511.43 580,598 C559.43,626.91 527.5435,646.0542 509.9835,655.3442 " fill="none" id="skipChoice-to-*end*" style="stroke:#181818;stroke-width:1.0;"/><polygon fill="#181818" points="504.68,658.15,514.5058,657.477,509.0996,655.8118,510.7648,650.4056,504.68,658.15" style="stroke:#181818;stroke-width:1.0;"/><text fill="#000000" font-family="sans-serif" font-size="13" lengthAdjust="spacing" textLength="107.561" x="640" y="484.0669">[choice="page"]</text></g><!--link Idle to *end*--><g id="link_Idle_*end*"><path d="M495,441.31 C495,489.79 495,609.37 495,646.51 " fill="none" id="Idle-to-*end*" style="stroke:#181818;stroke-width:1.0;"/><polygon fill="#181818" points="495,652.51,499,643.51,495,647.51,491,643.51,495,652.51" style="stroke:#181818;stroke-width:1.0;"/><text fill="#000000" font-family="sans-serif" font-size="13" lengthAdjust="spacing" textLength="75.1118" x="496" y="542.5669">Page footer</text></g><!--SRC=[PPB1JeKm44Nt_Oe9RjJ83v0d2q4JDsfyIyAYqb4QeILjuzCO_zsXRQ0FM3Ntdjjcxj1BWO3Zv7v0eEsCd9pKYZNNBUHv2OzYm09U-0T2ZroWOKV77SAhFi4l0_fcmgCrwGKyI6CT67tovgo5U-e0rm75D-bIeJ8eek8zBzxnWQiElHg0dRp2bHv7L6uBft8Cxl5mJlK2dXN2g0t281Nki33h4tw7KVzOQb9tiR9thHrLPdrbcLRtncXp_9JJPTThsU5L1jn2r2ilmU5WnM2mG_c5PHcpbZAB7xBadGVdfrUEpHlAcmkguaPmswDeoJzBqBAu752mvFPrvqruvZQZ0RDso_WP5sIYOObPVeLj0_y0]--></g></svg>